# xmcd
#
# Track frame offsets: 
#        150
#        15187
#        25880
#        39527
#        51640
#        64370
#        76072
#        91450
#        104085
#        120115
#        133080
#        145757
#        161645
#        173572
#        186860
#        203762
#        216100
#        228892
#        239087
#
# Disc length: 3475 seconds
#
# Revision: 2
# Processed by: cddbd v1.4PL0 Copyright (c) Steve Scherf et al.
# Submitted via: ExactAudioCopy v0.90b4
#
DISCID=040d9113
DTITLE=Solomon Burke - Home in Your Heart [CD2]
DYEAR=1900
DGENRE=R&B
TTITLE0=Get Out Of My Life Woman
TTITLE1=Save It
TTITLE2=Take Me (Just As I Am)
TTITLE3=When She Touches Me (Nothing Else Matters)
TTITLE4=I Wish I Knew (How It Would Feel To Be Free)
TTITLE5=Party People
TTITLE6=Keep A Light In The Window
TTITLE7=I Feel A Sin Coming On
TTITLE8=Meet Me In Church
TTITLE9=Someone Is Watching
TTITLE10=Detroit City
TTITLE11=Shame On Me
TTITLE12=I Stayed Away Too Long
TTITLE13=It's Just A Matter Of Time
TTITLE14=Since I Met You Baby
TTITLE15=Time Is A Thief
TTITLE16=Woman, How Do You Make Me Love You Like I Do
TTITLE17=It's Been A Change
TTITLE18=What'd I Say
EXTD=
EXTT0=
EXTT1=
EXTT2=
EXTT3=
EXTT4=
EXTT5=
EXTT6=
EXTT7=
EXTT8=
EXTT9=
EXTT10=
EXTT11=
EXTT12=
EXTT13=
EXTT14=
EXTT15=
EXTT16=
EXTT17=
EXTT18=
PLAYORDER=
